<svg xmlns="http://www.w3.org/2000/svg" viewBox="0 0 187.81 15.3"><defs><style>.cls-1,.cls-2,.cls-3{fill:#aab7c4;}.cls-2{opacity:0.5;}.cls-2,.cls-3{isolation:isolate;}.cls-3{opacity:0.75;}</style></defs><title>Asset 2</title><g id="Layer_2" data-name="Layer 2"><g id="Layer_1-2" data-name="Layer 1"><path class="cls-1" d="M20.6,1.1l-2.8,13H14.4l2.8-13ZM34.7,9.5l1.8-4.9,1,4.9Zm3.8,4.6h3.1l-2.7-13H36a1.5,1.5,0,0,0-1.4,1l-5,12h3.5l.7-1.9h4.3ZM29.7,9.8c0-3.4-4.7-3.6-4.7-5.1a1.32,1.32,0,0,1,1.4-1.1,6.28,6.28,0,0,1,3.3.6l.6-2.8A8.53,8.53,0,0,0,27.2.8c-3.3,0-5.7,1.8-5.7,4.3,0,1.9,1.7,2.9,2.9,3.5s1.8,1,1.7,1.6c0,.9-1,1.3-2,1.3a8.53,8.53,0,0,1-3.5-.8L20,13.5a9.71,9.71,0,0,0,3.7.7c3.7.1,6-1.7,6-4.4M15.8,1.1l-5.4,13H6.8L4.1,3.7a1.33,1.33,0,0,0-.8-1.1A11.66,11.66,0,0,0,0,1.5l.1-.4H5.8A1.51,1.51,0,0,1,7.3,2.4L8.7,9.9l3.6-8.8Z"/><path class="cls-1" d="M163.3,6.6V5.3a1.08,1.08,0,0,0-1-1h-1.4V6.6h-1.5V.1h3.7A1.69,1.69,0,0,1,165,1.5V2a1.65,1.65,0,0,1-.9,1.5,1.49,1.49,0,0,1,.7,1.5V6.6h-1.5m-2.5-3.8h1.6a.68.68,0,0,0,.8-.4.68.68,0,0,0-.4-.8h-2V2.8m21.3,3.8-2.4-4.4V6.6h-3l-.5-1.4h-2.8l-.5,1.4h-3.2s-2-.3-2-3.1c0-3.4,1.7-3.5,2.4-3.5H172V1.5h-1.5a1.24,1.24,0,0,0-1.1,1.4v.5c0,2.2,2.6,1.5,2.7,1.5L174,0h2.1l2.3,5.9V.1h2.1l2.4,4.3V.1h1.5V6.7l-2.3-.1m-8-3h1.5l-.7-1.9-.8,1.9m-22.7,3V2.1l-1.9,4.5h-1.2l-1.9-4.5V6.6h-3l-.5-1.4h-2.8l-.5,1.4h-1.7L140.4,0h2.1l2.3,6V.1h2.4l1.7,4.1L150.6.1H153V6.7l-1.6-.1m-10.7-3h1.5l-.7-1.9-.8,1.9m13.1,3V.1h4.7V1.6h-3.2v1h3.1V4.1h-3.1V5.2h3.2V6.6h-4.7m11.8.1V.1h1.5V6.7h-1.5m3.3,8.4V13.8a1,1,0,0,0-1.1-1h-1.6v2.3h-1.6V8.6h3.9a1.67,1.67,0,0,1,2,1.5v.4a1.65,1.65,0,0,1-.9,1.5,1.76,1.76,0,0,1,.8,1.5v1.6h-1.5m-2.6-3.8H168a.63.63,0,0,0,.4-1.2.3.3,0,0,0-.4,0h-1.7v1.2m-8.1,3.8h-1.4l-1.7-1.9-1.7,1.9h-6V8.6h5.9l1.8,2.1L157,8.6h5.1a1.73,1.73,0,0,1,2,1.5v.4c0,1.9-.7,2.5-2.8,2.5h-1.6v2.1h-1.5m-2-3.2,2,2.3V9.7l-2,2.2M149,13.7h3.4l1.6-1.8-1.6-1.8H149v1h3.3v1.5H149v1.1m10.8-2.4h1.7a.63.63,0,0,0,.4-1.2.3.3,0,0,0-.4,0h-1.7v1.2m20.1,3.8H177V13.6h2.5s.9.1.9-.5-1.4-.5-1.4-.5a1.93,1.93,0,0,1-2.2-1.6v-.3a1.88,1.88,0,0,1,1.7-2h3.4v1.4h-2.5s-.9-.2-.9.5c0,.5,1.2.5,1.2.5s2.5-.2,2.5,1.8a2.1,2.1,0,0,1-1.8,2.3H180l-.1-.1m-8.6,0V8.6h5v1.5h-3.4v1h3.3v1.5h-3.3v1.1h3.4v1.4h-5m14.2,0h-2.9V13.6h2.5s.9.1.9-.5-1.4-.5-1.4-.5a1.93,1.93,0,0,1-2.2-1.7v-.3a1.88,1.88,0,0,1,1.7-2h3.4v1.5H185s-.9-.2-.9.5c0,.5,1.2.5,1.2.5s2.5-.2,2.5,1.8a2.1,2.1,0,0,1-1.8,2.3h-.4c0-.1,0-.1-.1-.1"/><path class="cls-1" d="M82.1,5.1a2,2,0,0,0-1.8.9,1.94,1.94,0,0,0-1.7-.9,1.66,1.66,0,0,0-1.5.7V5.2H76v4.9h1.1V7.4a1.26,1.26,0,0,1,1.3-1.3c.7,0,1.1.5,1.1,1.3v2.7h1.1V7.4a1.26,1.26,0,0,1,1.3-1.3c.7,0,1.1.5,1.1,1.3v2.7h1.1v-3A1.89,1.89,0,0,0,82.1,5.1Zm6.9.8a1.81,1.81,0,0,0-1.5-.7,2.42,2.42,0,0,0-2.4,2.6,2.48,2.48,0,0,0,2.4,2.6A1.81,1.81,0,0,0,89,9.7v.4h1.1V5.2H89ZM87.6,9.3a1.5,1.5,0,0,1-1.5-1.6,1.5,1.5,0,1,1,3,0A1.5,1.5,0,0,1,87.6,9.3Zm6.2-2.1-.5-.1c-.4-.1-.8-.2-.8-.5s.3-.6.9-.6a3,3,0,0,1,1.5.4l.5-.8a3.94,3.94,0,0,0-2-.5c-1.2,0-2,.6-2,1.6,0,.8.6,1.3,1.6,1.4l.5.1c.6.1.8.3.8.5,0,.4-.4.6-1.1.6a2.17,2.17,0,0,1-1.6-.5l-.5.8a3.77,3.77,0,0,0,2.1.6c1.4,0,2.2-.7,2.2-1.6S94.9,7.4,93.8,7.2Zm5.4,2.1a.82.82,0,0,1-.8-.9V6.3h1.9v-1H98.4V3.8H97.3V5.3h-1v1h1V8.4c0,1.3.6,1.9,1.7,1.9a2.46,2.46,0,0,0,1.5-.5l-.4-.9A1.8,1.8,0,0,1,99.2,9.3Zm4.4-4.2a2.37,2.37,0,0,0-2.4,2.6,2.39,2.39,0,0,0,2.5,2.6,3.06,3.06,0,0,0,2-.7l-.5-.8a2.39,2.39,0,0,1-1.4.5,1.32,1.32,0,0,1-1.4-1.2H106V7.7A2.48,2.48,0,0,0,103.6,5.1Zm-1.3,2.2a1.24,1.24,0,0,1,1.3-1.2q1,0,1.2,1.2Zm5.9-1.5V5.2h-1.1v4.9h1.1V7.4a1.18,1.18,0,0,1,1.2-1.3,1.88,1.88,0,0,1,.8.2l.3-1.1a2,2,0,0,0-.8-.1A1.58,1.58,0,0,0,108.2,5.8Zm5,.3a1.84,1.84,0,0,1,1.2.5l.7-.7a2.34,2.34,0,0,0-1.8-.8,2.52,2.52,0,0,0-2.6,2.6,2.47,2.47,0,0,0,2.6,2.6,2.34,2.34,0,0,0,1.8-.8l-.7-.7a1.66,1.66,0,0,1-1.2.5,1.43,1.43,0,0,1-1.4-1.6A1.43,1.43,0,0,1,113.2,6.1Zm6.4-.2a1.81,1.81,0,0,0-1.5-.7,2.42,2.42,0,0,0-2.4,2.6,2.48,2.48,0,0,0,2.4,2.6,1.81,1.81,0,0,0,1.5-.7v.4h1.1V5.2h-1.1Zm-1.4,3.4a1.5,1.5,0,0,1-1.5-1.6,1.5,1.5,0,1,1,3,0A1.5,1.5,0,0,1,118.2,9.3Zm5.1-3.5V5.2h-1.1v4.9h1.1V7.4a1.18,1.18,0,0,1,1.2-1.3,1.88,1.88,0,0,1,.8.2l.3-1.1a2,2,0,0,0-.8-.1A1.58,1.58,0,0,0,123.3,5.8Zm6.4-3v3a1.81,1.81,0,0,0-1.5-.7,2.42,2.42,0,0,0-2.4,2.6,2.48,2.48,0,0,0,2.4,2.6,1.81,1.81,0,0,0,1.5-.7v.5h1.1V2.8Zm-1.4,6.5a1.5,1.5,0,0,1-1.5-1.6,1.5,1.5,0,1,1,3,0A1.5,1.5,0,0,1,128.3,9.3ZM56.1,7.7a7.6,7.6,0,0,1,2.8-5.9A7.55,7.55,0,0,0,54.3.2a7.34,7.34,0,0,0-7.4,7.5,7.41,7.41,0,0,0,12,6A8,8,0,0,1,56.1,7.7Z"/><path class="cls-2" d="M63.5.1a7.55,7.55,0,0,0-4.6,1.6,7.62,7.62,0,0,1,0,11.8,7.55,7.55,0,0,0,4.6,1.6,7.5,7.5,0,0,0,0-15Z"/><path class="cls-3" d="M61.7,7.7a7.6,7.6,0,0,0-2.8-5.9c-1.7,1.4-3.8,3.5-3.8,5.9s2,4.5,3.8,5.9A7.6,7.6,0,0,0,61.7,7.7Z"/></g></g></svg>